# xmcd
#
# Track frame offsets:
#	150
#	13055
#	26415
#	38055
#	53060
#	65277
#	75837
#	88082
#	97275
#	110885
#	123232
#	136590
#	148165
#	160055
#	170737
#	185887
#	198847
#	212540
#
# Disc length: 3000 seconds
#
# Revision: 1
# Processed by: cddbd v1.5.2PL0 Copyright (c) Steve Scherf et al.
# Submitted via: audiograbber 1.83.01
#
DISCID=f60bb612
DTITLE=Various Artist - Vintage Soul Classics
DYEAR=1996
DGENRE=Soul
TTITLE0=Bob and Earl - Harlem Shuffle
TTITLE1=Ben E. King - Stand By Me
TTITLE2=Ike and Tina Turner - Somebody, Somewhere Needs You
TTITLE3=Percy Sledge - Warm And Tender Love
TTITLE4=Aaron Neville - Tell It Like It Is
TTITLE5=Esther Phillips - Wild Child
TTITLE6=Ike and Tina Turner - So Fine
TTITLE7=Gladys Knight and The Pips - Every Beat Of My Heart
TTITLE8=Patti LaBelle and The Bluebelles - Have I Sinned
TTITLE9=Percy Sledge - My Adorable One
TTITLE10=Eddie Floyd - Knock On Wood
TTITLE11=Maxine Brown - Oh No Not My Baby
TTITLE12=Sam and Dave - Soul Man
TTITLE13=Ben E. King - How Can I Forget
TTITLE14=Ike and Tina Turner - Crazy About You Baby
TTITLE15=Mary Wells - My Guy
TTITLE16=Percy Sledge - Take Time To Know Her
TTITLE17=Ben E. King - Don't Play That Song
EXTD=
EXTT0=
EXTT1=
EXTT2=
EXTT3=
EXTT4=
EXTT5=
EXTT6=
EXTT7=
EXTT8=
EXTT9=
EXTT10=
EXTT11=
EXTT12=
EXTT13=
EXTT14=
EXTT15=
EXTT16=
EXTT17=
PLAYORDER=
